<svg id="svg" version="1.1" xmlns="http://www.w3.org/2000/svg" xmlns:xlink="http://www.w3.org/1999/xlink" width="60" height="60" viewBox="0, 0, 400,400"><g id="svgg"><path id="path0" d="M82.199 88.739 C 75.512 90.955,70.741 95.618,68.837 101.800 L 67.974 104.600 68.093 164.600 C 68.232 235.090,67.928 231.026,73.554 237.400 C 80.133 244.854,78.898 244.722,139.400 244.424 C 143.580 244.403,163.462 244.476,183.583 244.585 L 220.165 244.783 221.183 245.803 C 222.196 246.819,222.199 246.850,222.078 252.912 C 221.956 258.962,222.712 266.740,223.579 268.360 C 223.796 268.766,224.169 269.976,224.407 271.049 C 224.823 272.926,226.660 277.520,227.826 279.600 C 228.134 280.150,228.705 281.232,229.093 282.004 C 231.831 287.443,241.065 296.960,247.400 300.872 C 248.500 301.551,249.850 302.414,250.400 302.790 C 250.950 303.166,252.064 303.692,252.875 303.960 C 253.686 304.227,254.773 304.778,255.289 305.184 C 255.806 305.590,257.032 306.131,258.014 306.385 C 258.996 306.639,260.700 307.206,261.800 307.645 C 266.875 309.670,279.749 310.931,284.128 309.833 C 285.488 309.492,288.670 309.060,291.200 308.874 C 294.896 308.601,296.240 308.325,298.039 307.467 C 299.270 306.880,300.587 306.400,300.965 306.400 C 301.685 306.400,303.257 305.682,303.600 305.197 C 303.710 305.041,304.610 304.528,305.600 304.057 C 307.761 303.029,311.671 300.471,314.551 298.200 C 318.335 295.217,324.361 288.716,326.186 285.648 C 326.398 285.292,327.049 284.280,327.632 283.400 C 328.215 282.520,328.814 281.411,328.962 280.936 C 329.110 280.461,329.494 279.854,329.815 279.587 C 330.137 279.320,330.402 278.809,330.405 278.451 C 330.408 278.093,330.942 276.750,331.593 275.467 C 332.244 274.185,332.896 272.475,333.043 271.667 C 333.189 270.860,333.624 269.390,334.008 268.400 C 335.367 264.900,335.600 259.216,335.600 229.646 C 335.600 195.612,336.539 199.600,328.528 199.600 C 320.142 199.600,319.838 199.399,319.764 193.800 C 319.705 189.290,318.977 181.883,318.504 180.969 C 318.285 180.546,317.879 179.210,317.601 178.000 C 317.092 175.779,314.858 169.970,314.371 169.600 C 314.226 169.490,313.724 168.644,313.256 167.721 C 312.788 166.797,311.974 165.561,311.448 164.975 C 310.922 164.389,310.155 163.535,309.745 163.077 C 309.335 162.620,308.820 161.937,308.600 161.561 C 308.249 160.961,304.631 157.877,301.308 155.348 C 300.226 154.524,297.393 153.119,291.277 150.373 C 287.107 148.500,287.431 150.505,287.177 125.000 C 286.951 102.380,286.824 100.481,285.437 99.094 C 285.144 98.801,284.621 98.030,284.274 97.380 C 283.246 95.452,280.778 93.133,277.430 90.952 C 274.034 88.740,277.002 88.816,193.400 88.789 C 127.232 88.768,115.971 88.683,114.600 88.188 C 113.316 87.726,110.273 87.619,99.200 87.645 L 85.400 87.678 82.199 88.739 M268.386 102.034 C 269.500 102.273,270.638 102.695,270.914 102.971 C 271.190 103.248,271.811 103.685,272.294 103.943 C 273.945 104.827,274.050 106.341,273.922 127.536 L 273.800 147.671 272.919 148.384 C 272.432 148.778,270.734 149.294,269.119 149.538 C 263.033 150.457,254.463 155.127,249.195 160.395 C 247.327 162.263,244.800 165.439,244.800 165.918 C 244.800 166.129,244.538 166.519,244.218 166.785 C 243.322 167.529,240.900 172.140,240.390 174.072 C 240.140 175.022,239.707 176.160,239.428 176.600 C 238.257 178.449,237.827 181.792,237.915 188.350 C 238.020 196.080,237.739 197.457,235.809 198.700 L 234.411 199.600 215.506 199.613 C 192.502 199.629,194.835 198.834,195.197 206.540 C 195.391 210.676,195.600 212.155,196.028 212.426 C 196.343 212.625,201.855 212.791,208.278 212.794 C 223.286 212.802,222.001 212.007,222.175 221.392 L 222.301 228.183 220.872 229.491 L 219.444 230.800 153.533 230.800 L 87.621 230.800 85.911 229.960 C 84.850 229.439,83.782 228.470,83.100 227.408 L 82.000 225.696 82.000 173.673 C 82.000 127.510,82.072 121.343,82.637 118.925 C 83.117 116.867,83.208 115.221,83.006 112.200 C 82.499 104.601,84.631 102.435,92.687 102.360 C 95.059 102.338,97.450 102.176,98.000 102.000 C 99.610 101.485,265.979 101.518,268.386 102.034 M112.200 135.867 C 110.215 136.111,107.600 136.882,107.600 137.225 C 107.600 137.402,107.285 137.647,106.900 137.770 C 106.062 138.038,102.803 140.961,102.793 141.454 C 102.789 141.644,102.249 142.592,101.593 143.560 L 100.400 145.320 100.400 158.582 L 100.400 171.845 101.363 173.150 C 101.892 173.867,102.544 174.982,102.811 175.627 C 103.078 176.272,103.449 176.800,103.635 176.800 C 103.820 176.800,104.571 177.326,105.303 177.968 C 108.470 180.750,111.159 181.200,124.590 181.200 C 131.217 181.200,136.811 181.042,137.020 180.849 C 137.229 180.656,138.330 180.197,139.467 179.828 C 141.978 179.014,145.317 175.902,146.557 173.222 C 148.248 169.567,147.971 146.269,146.195 142.800 C 144.624 139.732,140.215 136.582,136.691 136.010 C 134.405 135.639,114.983 135.526,112.200 135.867 M133.140 150.028 C 134.214 151.181,134.317 152.111,134.187 159.528 C 134.034 168.302,134.892 167.600,124.318 167.600 C 114.714 167.600,113.634 167.348,113.555 165.090 C 113.457 162.275,113.658 151.763,113.821 151.194 C 114.440 149.033,131.266 148.017,133.140 150.028 M287.800 163.493 C 292.135 165.382,293.981 166.562,296.858 169.285 C 299.291 171.588,302.400 175.268,302.400 175.845 C 302.400 175.977,302.849 176.978,303.398 178.071 C 305.057 181.373,305.600 184.649,305.600 191.350 L 305.600 197.450 304.478 198.525 L 303.356 199.600 278.665 199.600 C 251.780 199.600,251.511 199.579,250.973 197.435 C 250.373 195.045,251.030 183.475,251.872 181.600 C 252.317 180.610,252.978 178.990,253.342 178.000 C 253.899 176.485,256.580 172.410,257.948 171.000 C 261.329 167.516,265.102 164.779,267.665 163.952 C 268.399 163.715,269.540 163.286,270.200 163.000 C 272.249 162.110,272.831 162.055,279.000 162.166 C 284.691 162.268,285.144 162.336,287.800 163.493 M100.643 200.233 C 100.329 201.051,100.336 210.722,100.652 211.900 L 100.893 212.800 114.657 212.800 L 128.420 212.800 128.810 211.774 C 129.492 209.980,129.306 200.963,128.571 200.229 C 127.616 199.273,101.009 199.277,100.643 200.233 M148.500 200.080 C 147.175 200.731,147.105 210.705,148.415 212.015 C 149.333 212.933,175.460 213.102,176.365 212.196 C 176.844 211.716,177.176 201.009,176.735 200.294 C 176.320 199.623,149.838 199.423,148.500 200.080 M320.674 213.670 L 321.600 214.539 321.600 236.588 C 321.600 259.880,321.355 263.361,319.435 267.400 C 316.801 272.939,315.024 276.387,314.281 277.403 C 311.590 281.077,310.783 282.029,308.349 284.400 C 305.380 287.292,302.664 289.365,301.300 289.780 C 300.805 289.931,300.400 290.194,300.400 290.366 C 300.400 290.538,299.635 291.010,298.700 291.414 C 297.765 291.819,296.730 292.369,296.400 292.636 C 296.070 292.903,294.870 293.395,293.734 293.729 C 292.598 294.063,291.248 294.612,290.734 294.948 C 289.500 295.756,286.941 296.087,278.800 296.492 C 276.360 296.614,267.553 295.597,266.530 295.076 C 265.908 294.759,264.320 294.191,263.000 293.814 C 261.680 293.437,260.330 292.892,260.000 292.604 C 259.670 292.316,258.770 291.788,258.000 291.431 C 256.010 290.510,253.762 289.092,252.678 288.074 C 252.167 287.593,251.577 287.200,251.368 287.200 C 250.560 287.200,242.000 277.877,242.000 276.997 C 242.000 276.859,241.571 276.174,241.046 275.473 C 240.522 274.773,239.961 273.750,239.799 273.200 C 239.638 272.650,239.088 271.390,238.577 270.400 C 238.067 269.410,237.149 267.070,236.537 265.200 L 235.425 261.800 235.292 238.054 C 235.169 216.119,235.211 214.251,235.841 213.554 C 236.502 212.824,237.873 212.800,278.136 212.800 L 319.748 212.800 320.674 213.670 M291.982 235.100 C 291.267 235.705,290.305 236.560,289.845 237.000 C 289.385 237.440,288.196 238.493,287.204 239.340 C 285.575 240.731,282.603 243.448,276.745 248.900 C 273.647 251.783,273.237 251.671,267.937 246.502 C 262.468 241.169,262.768 241.174,257.652 246.336 C 252.626 251.409,252.206 250.288,263.247 261.255 L 272.417 270.364 273.904 269.356 C 274.721 268.801,276.497 267.324,277.851 266.073 C 279.204 264.823,280.884 263.350,281.583 262.800 C 282.282 262.250,283.967 260.766,285.327 259.503 C 286.687 258.240,288.746 256.350,289.902 255.303 C 291.059 254.256,293.057 252.410,294.343 251.200 C 295.630 249.990,298.050 247.780,299.721 246.290 L 302.761 243.579 301.999 242.290 C 301.580 241.580,300.125 239.830,298.766 238.400 C 297.406 236.970,296.027 235.395,295.701 234.900 C 294.905 233.693,293.560 233.765,291.982 235.100 " stroke="none" fill="#f9ebec" fill-rule="evenodd"></path><path id="path1" d="M161.600 0.600 C 161.600 1.087,160.942 1.201,158.100 1.205 C 153.918 1.212,152.905 1.440,152.586 2.443 C 152.387 3.072,151.950 3.200,149.999 3.200 C 147.045 3.200,145.600 3.722,145.600 4.790 C 145.600 5.536,145.346 5.600,142.408 5.600 C 139.380 5.600,139.203 5.649,138.977 6.551 C 138.758 7.420,138.465 7.526,135.569 7.779 C 132.555 8.041,132.400 8.103,132.400 9.027 C 132.400 9.938,132.262 10.000,130.231 10.000 C 128.354 10.000,127.900 10.162,126.862 11.200 C 125.815 12.246,125.376 12.400,123.431 12.400 C 121.331 12.400,121.200 12.457,121.200 13.379 C 121.200 14.278,121.028 14.368,119.100 14.479 C 117.165 14.591,116.990 14.683,116.878 15.655 C 116.762 16.655,116.620 16.718,114.124 16.877 C 112.085 17.007,111.344 17.229,110.829 17.865 C 110.418 18.372,109.440 18.793,108.262 18.970 C 106.752 19.196,106.283 19.456,105.990 20.228 C 105.734 20.900,105.311 21.200,104.618 21.200 C 103.882 21.200,103.548 21.466,103.364 22.200 C 103.157 23.025,102.872 23.200,101.730 23.200 C 99.939 23.200,98.800 23.827,98.800 24.814 C 98.800 25.403,98.525 25.601,97.700 25.605 C 95.806 25.615,94.800 26.049,94.800 26.857 C 94.800 27.385,94.430 27.694,93.600 27.860 C 92.705 28.039,92.400 28.323,92.400 28.977 C 92.400 29.721,92.081 29.911,90.300 30.227 C 88.564 30.535,88.178 30.756,88.072 31.500 C 87.973 32.200,87.683 32.400,86.772 32.400 C 85.789 32.400,85.600 32.561,85.600 33.400 C 85.600 34.106,85.383 34.400,84.860 34.400 C 83.329 34.400,81.600 35.269,81.600 36.039 C 81.600 36.617,81.313 36.800,80.408 36.800 C 79.477 36.800,79.161 37.014,78.970 37.777 C 78.821 38.372,78.387 38.802,77.862 38.877 C 77.258 38.963,76.962 39.329,76.873 40.100 C 76.768 41.013,76.553 41.200,75.607 41.200 C 74.860 41.200,74.078 41.613,73.335 42.400 C 72.712 43.060,71.800 43.600,71.309 43.600 C 70.695 43.600,70.339 43.906,70.170 44.577 C 70.023 45.163,69.586 45.603,69.079 45.677 C 68.558 45.753,68.143 46.185,68.001 46.800 C 67.834 47.516,67.460 47.836,66.684 47.927 C 65.837 48.025,65.600 48.266,65.600 49.027 C 65.600 49.801,65.393 50.000,64.590 50.000 C 63.788 50.000,63.531 50.247,63.340 51.200 C 63.154 52.129,62.886 52.400,62.150 52.400 C 61.410 52.400,61.200 52.615,61.200 53.373 C 61.200 54.138,60.964 54.374,60.100 54.473 C 59.236 54.573,58.973 54.836,58.873 55.700 C 58.774 56.564,58.538 56.800,57.773 56.800 C 57.009 56.800,56.800 57.009,56.800 57.773 C 56.800 58.538,56.564 58.774,55.700 58.873 C 54.836 58.973,54.573 59.236,54.473 60.100 C 54.374 60.964,54.138 61.200,53.373 61.200 C 52.612 61.200,52.400 61.410,52.400 62.161 C 52.400 62.869,52.084 63.232,51.200 63.540 C 50.411 63.815,50.000 64.230,50.000 64.751 C 50.000 65.269,49.688 65.589,49.100 65.672 C 48.456 65.764,48.164 66.112,48.073 66.900 C 47.985 67.669,47.719 68.000,47.188 68.000 C 46.222 68.000,45.600 69.155,45.600 70.947 C 45.600 72.177,45.466 72.362,44.500 72.473 C 43.723 72.563,43.363 72.857,43.275 73.475 C 43.198 74.021,42.821 74.398,42.275 74.475 C 41.657 74.563,41.363 74.923,41.273 75.700 C 41.175 76.553,40.935 76.800,40.205 76.800 C 39.487 76.800,39.202 77.081,39.004 77.982 C 38.861 78.632,38.416 79.268,38.015 79.395 C 37.271 79.631,36.815 80.714,36.805 82.268 C 36.801 82.906,36.481 83.206,35.600 83.400 C 34.601 83.619,34.400 83.859,34.400 84.832 C 34.400 85.711,34.213 86.000,33.643 86.000 C 32.756 86.000,32.400 86.747,32.400 88.606 C 32.400 89.771,32.256 89.963,31.300 90.073 C 30.337 90.184,30.184 90.394,30.073 91.756 C 29.948 93.273,29.261 94.400,28.460 94.400 C 28.242 94.400,27.947 94.929,27.805 95.576 C 27.629 96.377,27.269 96.791,26.674 96.876 C 25.921 96.983,25.783 97.291,25.679 99.100 C 25.570 101.001,25.469 101.200,24.622 101.200 C 23.720 101.200,23.200 101.863,23.200 103.012 C 23.200 103.313,22.750 104.044,22.200 104.638 C 21.638 105.245,21.200 106.198,21.200 106.816 C 21.200 107.485,20.731 108.418,20.000 109.200 C 19.095 110.169,18.800 110.865,18.800 112.033 C 18.800 113.243,18.582 113.725,17.800 114.237 C 16.962 114.786,16.800 115.205,16.800 116.819 C 16.800 118.468,16.670 118.787,15.900 119.027 C 14.593 119.435,14.413 119.901,14.406 122.900 C 14.400 125.512,14.367 125.600,13.400 125.600 C 12.455 125.600,12.400 125.720,12.400 127.800 C 12.400 129.440,12.255 130.000,11.829 130.000 C 10.548 130.000,10.000 131.200,10.000 134.001 C 10.000 136.541,9.933 136.754,9.100 136.872 C 8.284 136.988,8.167 137.309,7.845 140.300 C 7.598 142.597,7.328 143.600,6.959 143.600 C 5.994 143.600,5.600 145.102,5.600 148.774 C 5.600 152.322,5.580 152.400,4.652 152.400 C 3.536 152.400,3.212 153.690,3.204 158.154 C 3.201 160.575,3.079 161.020,2.200 161.835 C 1.268 162.699,1.200 163.021,1.200 166.581 C 1.200 169.709,1.091 170.400,0.600 170.400 C 0.072 170.400,0.000 173.956,0.000 200.000 C 0.000 225.785,0.076 229.600,0.588 229.600 C 1.071 229.600,1.197 230.553,1.288 234.900 C 1.393 239.882,1.451 240.223,2.258 240.577 C 3.045 240.922,3.129 241.313,3.264 245.245 C 3.404 249.350,3.457 249.573,4.490 250.385 C 5.505 251.184,5.577 251.457,5.685 254.917 C 5.792 258.331,5.862 258.609,6.655 258.722 C 7.425 258.832,7.537 259.182,7.795 262.281 C 8.035 265.153,8.239 265.876,9.041 266.677 C 9.798 267.434,10.000 268.059,10.000 269.639 C 10.000 271.505,10.082 271.670,11.200 272.060 C 12.378 272.470,12.400 272.530,12.400 275.248 C 12.400 277.814,12.473 278.051,13.400 278.473 C 14.208 278.841,14.400 279.216,14.400 280.431 C 14.400 282.546,14.741 283.200,15.843 283.200 C 16.736 283.200,16.800 283.346,16.800 285.400 C 16.800 287.480,16.855 287.600,17.800 287.600 C 18.732 287.600,18.800 287.735,18.800 289.574 C 18.800 292.058,19.381 293.618,20.405 293.885 C 21.003 294.042,21.200 294.432,21.200 295.465 C 21.200 296.353,21.517 297.155,22.100 297.739 C 22.595 298.236,23.184 299.173,23.408 299.821 C 23.668 300.573,24.139 301.046,24.708 301.128 C 25.478 301.238,25.600 301.499,25.600 303.036 C 25.600 304.549,25.751 304.886,26.602 305.274 C 27.265 305.576,27.745 306.252,28.020 307.273 C 28.248 308.121,28.787 309.035,29.217 309.304 C 29.678 309.591,30.000 310.234,30.000 310.864 C 30.000 311.730,30.231 311.987,31.200 312.200 C 32.138 312.406,32.400 312.679,32.400 313.450 C 32.400 313.992,32.838 314.874,33.373 315.409 C 33.907 315.944,34.402 316.881,34.473 317.491 C 34.572 318.358,34.835 318.627,35.676 318.724 C 36.507 318.820,36.780 319.093,36.876 319.924 C 36.961 320.667,37.264 321.038,37.851 321.121 C 38.542 321.220,38.751 321.608,38.960 323.180 C 39.176 324.808,39.375 325.157,40.208 325.366 C 40.931 325.548,41.200 325.885,41.200 326.608 C 41.200 327.386,41.405 327.600,42.150 327.600 C 42.886 327.600,43.154 327.871,43.340 328.800 C 43.529 329.743,43.791 330.000,44.563 330.000 C 45.339 330.000,45.574 330.233,45.673 331.100 C 45.762 331.871,46.058 332.237,46.662 332.323 C 47.187 332.398,47.621 332.828,47.770 333.423 C 47.948 334.131,48.289 334.400,49.008 334.400 C 49.822 334.400,50.001 334.597,50.005 335.500 C 50.015 337.421,50.464 338.401,51.448 338.648 C 52.119 338.816,52.400 339.169,52.400 339.843 C 52.400 340.529,52.624 340.800,53.190 340.800 C 53.663 340.800,54.228 341.281,54.600 342.000 C 54.972 342.719,55.537 343.200,56.010 343.200 C 56.536 343.200,56.800 343.470,56.800 344.009 C 56.800 344.485,57.215 345.006,57.810 345.277 C 58.365 345.530,58.924 346.156,59.053 346.669 C 59.216 347.319,59.575 347.600,60.243 347.600 C 61.000 347.600,61.200 347.812,61.200 348.610 C 61.200 349.408,61.447 349.669,62.378 349.856 C 63.164 350.013,63.597 350.367,63.678 350.919 C 63.751 351.412,64.211 351.855,64.819 352.017 C 65.379 352.166,66.350 352.763,66.977 353.344 C 67.604 353.925,68.529 354.400,69.032 354.400 C 69.733 354.400,69.976 354.657,70.073 355.500 C 70.173 356.364,70.436 356.627,71.300 356.727 C 72.164 356.826,72.400 357.062,72.400 357.827 C 72.400 358.598,72.607 358.800,73.400 358.800 C 74.096 358.800,74.400 359.019,74.400 359.520 C 74.400 360.406,75.149 361.200,75.985 361.200 C 76.329 361.200,76.788 361.605,77.005 362.100 C 77.321 362.821,77.778 363.024,79.300 363.122 C 81.109 363.238,81.200 363.300,81.200 364.422 C 81.200 365.409,81.361 365.600,82.192 365.600 C 82.917 365.600,83.252 365.869,83.436 366.600 C 83.613 367.308,83.958 367.600,84.616 367.600 C 85.203 367.600,85.642 367.903,85.807 368.423 C 86.091 369.317,87.484 370.000,89.026 370.000 C 89.737 370.000,90.000 370.218,90.000 370.810 C 90.000 371.716,91.375 372.400,93.198 372.400 C 94.082 372.400,94.374 372.606,94.472 373.300 C 94.561 373.922,94.913 374.236,95.613 374.318 C 96.199 374.386,96.789 374.808,97.013 375.318 C 97.290 375.950,97.934 376.303,99.280 376.563 C 100.739 376.845,101.188 377.115,101.280 377.763 C 101.382 378.472,101.721 378.618,103.500 378.721 C 105.401 378.830,105.600 378.931,105.600 379.778 C 105.600 380.864,106.262 381.200,108.405 381.200 C 109.697 381.200,109.965 381.345,110.072 382.100 C 110.184 382.884,110.471 383.016,112.300 383.121 C 113.986 383.218,114.400 383.380,114.400 383.941 C 114.400 385.074,115.247 385.600,117.072 385.600 C 118.565 385.600,118.817 385.728,119.036 386.600 C 119.265 387.512,119.477 387.600,121.443 387.600 C 123.342 387.600,123.600 387.697,123.600 388.410 C 123.600 389.478,125.045 390.000,127.998 390.000 C 130.125 390.000,130.356 390.084,130.472 390.897 C 130.614 391.892,131.746 392.272,134.805 392.353 C 136.269 392.391,136.685 392.570,137.005 393.300 C 137.365 394.120,137.710 394.210,140.883 394.315 C 144.104 394.422,144.428 394.510,145.196 395.486 C 145.984 396.488,146.249 396.550,150.413 396.722 C 154.270 396.881,154.800 396.988,154.800 397.609 C 154.800 398.799,154.846 398.800,198.859 398.800 C 241.984 398.800,243.200 398.761,243.200 397.386 C 243.200 396.926,243.822 396.799,246.100 396.796 C 250.689 396.789,252.000 396.470,252.000 395.364 C 252.000 394.473,252.145 394.427,255.300 394.316 C 258.377 394.208,258.609 394.139,258.728 393.300 C 258.845 392.478,259.069 392.400,261.328 392.398 C 264.566 392.395,266.835 391.754,267.092 390.769 C 267.262 390.122,267.661 390.000,269.621 390.000 C 272.431 390.000,273.845 389.518,274.186 388.443 C 274.391 387.798,274.850 387.617,276.521 387.520 C 278.314 387.417,278.617 387.279,278.725 386.520 C 278.833 385.761,279.137 385.624,280.925 385.520 C 282.857 385.408,283.009 385.324,283.127 384.300 C 283.247 383.250,283.353 383.200,285.427 383.200 C 287.478 383.200,287.600 383.144,287.600 382.200 C 287.600 381.272,287.739 381.200,289.520 381.200 C 291.550 381.200,292.400 380.704,292.400 379.520 C 292.400 378.923,292.740 378.800,294.392 378.800 C 296.158 378.800,296.412 378.691,296.624 377.847 C 296.822 377.057,297.198 376.850,298.827 376.634 C 300.449 376.419,300.833 376.209,301.028 375.433 C 301.209 374.709,301.626 374.434,302.831 374.241 C 303.763 374.092,304.601 373.668,304.896 373.195 C 305.169 372.758,305.780 372.400,306.254 372.400 C 306.728 372.400,307.681 371.871,308.373 371.225 C 309.065 370.579,310.112 369.994,310.700 369.925 C 311.455 369.837,311.836 369.510,311.999 368.813 C 312.170 368.083,312.587 367.754,313.605 367.545 C 314.362 367.391,315.284 366.890,315.654 366.432 C 316.025 365.974,316.600 365.600,316.931 365.600 C 318.134 365.600,318.800 365.095,318.800 364.184 C 318.800 363.466,319.051 363.224,319.900 363.127 C 320.688 363.036,321.036 362.744,321.128 362.100 C 321.220 361.449,321.524 361.200,322.228 361.200 C 323.041 361.200,323.200 361.004,323.200 360.000 C 323.200 358.871,323.293 358.800,324.767 358.800 C 326.822 358.800,327.600 358.472,327.600 357.607 C 327.600 357.141,328.010 356.818,328.800 356.660 C 329.743 356.471,330.000 356.209,330.000 355.437 C 330.000 354.661,330.233 354.426,331.100 354.327 C 331.888 354.236,332.236 353.944,332.328 353.300 C 332.407 352.744,332.733 352.400,333.182 352.400 C 333.581 352.400,334.202 351.951,334.562 351.402 C 334.921 350.853,335.858 350.136,336.644 349.807 C 337.429 349.479,338.164 348.858,338.277 348.428 C 338.389 347.997,338.867 347.590,339.337 347.522 C 339.808 347.455,340.429 346.905,340.718 346.300 C 341.007 345.695,341.519 345.200,341.857 345.200 C 342.194 345.200,342.673 344.660,342.922 344.000 C 343.172 343.340,343.602 342.800,343.878 342.800 C 344.155 342.800,344.700 342.314,345.090 341.719 C 345.479 341.125,346.203 340.233,346.699 339.737 C 347.194 339.242,347.600 338.390,347.600 337.845 C 347.600 337.060,347.830 336.827,348.700 336.727 C 349.557 336.628,349.827 336.362,349.924 335.524 C 350.020 334.693,350.293 334.420,351.124 334.324 C 351.877 334.237,352.237 333.937,352.325 333.325 C 352.402 332.779,352.779 332.402,353.325 332.325 C 353.943 332.237,354.237 331.877,354.327 331.100 C 354.426 330.233,354.661 330.000,355.437 330.000 C 356.205 330.000,356.471 329.743,356.656 328.822 C 356.816 328.019,357.163 327.605,357.746 327.522 C 358.279 327.446,358.648 327.062,358.728 326.501 C 358.807 325.942,359.221 325.510,359.819 325.359 C 360.622 325.158,360.827 324.790,361.043 323.159 C 361.272 321.438,361.418 321.200,362.252 321.200 C 363.034 321.200,363.200 320.995,363.200 320.027 C 363.200 319.044,363.379 318.833,364.300 318.727 C 365.164 318.627,365.427 318.364,365.527 317.500 C 365.626 316.636,365.862 316.400,366.627 316.400 C 367.486 316.400,367.600 316.223,367.600 314.886 C 367.600 313.628,367.803 313.253,368.800 312.664 C 369.576 312.205,370.000 311.632,370.000 311.042 C 370.000 310.463,370.356 309.966,370.972 309.685 C 371.714 309.347,372.009 308.816,372.214 307.443 C 372.429 306.013,372.660 305.620,373.342 305.522 C 374.076 305.418,374.217 305.097,374.321 303.300 C 374.432 301.365,374.520 301.200,375.431 301.200 C 376.194 301.200,376.471 300.944,376.644 300.080 C 376.768 299.461,377.255 298.790,377.734 298.580 C 378.417 298.280,378.626 297.798,378.722 296.300 C 378.830 294.612,378.948 294.400,379.775 294.400 C 380.788 294.400,381.185 293.540,381.195 291.328 C 381.199 290.315,381.384 290.030,382.100 289.928 C 382.884 289.816,383.016 289.529,383.121 287.700 C 383.218 286.014,383.380 285.600,383.941 285.600 C 385.100 285.600,385.600 284.741,385.600 282.748 C 385.600 281.090,385.712 280.840,386.500 280.728 C 387.281 280.617,387.416 280.328,387.520 278.538 C 387.623 276.763,387.768 276.444,388.569 276.244 C 389.615 275.981,390.000 274.719,390.000 271.550 C 390.000 270.055,390.145 269.600,390.620 269.600 C 391.467 269.600,392.400 267.210,392.400 265.040 C 392.400 263.639,392.563 263.202,393.157 263.014 C 394.151 262.698,394.388 261.680,394.395 257.700 C 394.400 254.491,394.426 254.400,395.353 254.400 C 396.506 254.400,396.787 253.572,396.795 250.149 C 396.799 248.054,396.931 247.611,397.700 247.100 L 398.600 246.503 398.705 199.515 L 398.810 152.527 397.805 151.443 C 397.030 150.607,396.799 149.928,396.796 148.479 C 396.787 144.896,396.403 143.600,395.348 143.600 C 394.425 143.600,394.400 143.510,394.400 140.200 C 394.400 137.922,394.250 136.800,393.944 136.800 C 393.074 136.800,392.425 135.390,392.413 133.474 C 392.397 131.166,391.852 130.000,390.786 130.000 C 390.075 130.000,390.000 129.716,390.000 127.036 C 390.000 124.233,389.935 124.016,388.800 123.061 C 387.730 122.161,387.600 121.809,387.600 119.817 C 387.600 117.822,387.493 117.534,386.600 117.127 C 385.818 116.771,385.600 116.374,385.600 115.309 C 385.600 113.549,384.971 112.400,384.007 112.400 C 383.366 112.400,383.222 112.059,383.121 110.300 C 383.019 108.527,382.871 108.182,382.170 108.081 C 381.510 107.987,381.264 107.536,380.970 105.881 C 380.665 104.164,380.443 103.778,379.700 103.672 C 379.013 103.575,378.800 103.281,378.800 102.431 C 378.800 101.797,378.369 100.852,377.800 100.238 C 377.250 99.644,376.800 98.913,376.800 98.612 C 376.800 97.456,376.277 96.800,375.357 96.800 C 374.510 96.800,374.400 96.619,374.400 95.233 C 374.400 93.178,374.072 92.400,373.207 92.400 C 372.741 92.400,372.418 91.990,372.260 91.200 C 372.071 90.255,371.810 90.000,371.031 90.000 C 370.120 90.000,370.032 89.835,369.921 87.900 C 369.808 85.941,369.726 85.791,368.700 85.673 C 367.803 85.570,367.600 85.348,367.600 84.468 C 367.600 83.735,367.313 83.263,366.702 82.995 C 366.209 82.778,365.752 82.240,365.687 81.800 C 365.377 79.697,365.150 79.274,364.203 79.037 C 363.470 78.852,363.200 78.518,363.200 77.792 C 363.200 77.008,362.996 76.800,362.227 76.800 C 361.462 76.800,361.226 76.564,361.127 75.700 C 361.027 74.836,360.764 74.573,359.900 74.473 C 359.036 74.374,358.800 74.138,358.800 73.373 C 358.800 72.838,358.573 72.400,358.296 72.400 C 357.610 72.400,356.910 71.194,356.583 69.449 C 356.363 68.278,356.133 68.000,355.382 68.000 C 354.666 68.000,354.424 67.748,354.327 66.900 C 354.236 66.112,353.944 65.764,353.300 65.672 C 352.763 65.596,352.400 65.265,352.400 64.852 C 352.400 63.956,351.632 63.200,350.720 63.200 C 350.219 63.200,350.000 62.896,350.000 62.200 C 350.000 61.356,349.813 61.200,348.800 61.200 C 347.733 61.200,347.600 61.067,347.600 60.000 C 347.600 58.987,347.444 58.800,346.600 58.800 C 345.800 58.800,345.600 58.600,345.600 57.800 C 345.600 56.956,345.413 56.800,344.400 56.800 C 343.333 56.800,343.200 56.667,343.200 55.600 C 343.200 54.587,343.044 54.400,342.200 54.400 C 341.400 54.400,341.200 54.200,341.200 53.400 C 341.200 52.556,341.013 52.400,340.000 52.400 C 338.933 52.400,338.800 52.267,338.800 51.200 C 338.800 50.196,338.641 50.000,337.828 50.000 C 337.130 50.000,336.820 49.750,336.728 49.116 C 336.648 48.562,336.233 48.147,335.615 48.002 C 334.997 47.857,334.543 47.403,334.398 46.785 C 334.253 46.168,333.838 45.752,333.284 45.672 C 332.751 45.595,332.308 45.173,332.166 44.607 C 332.035 44.085,331.533 43.570,331.034 43.444 C 330.541 43.320,329.930 42.765,329.677 42.210 C 329.418 41.642,328.882 41.200,328.451 41.200 C 328.029 41.200,327.107 40.660,326.400 40.000 C 325.693 39.340,324.684 38.800,324.158 38.800 C 323.403 38.800,323.200 38.588,323.200 37.800 C 323.200 36.956,323.013 36.800,322.000 36.800 C 321.002 36.800,320.800 36.639,320.800 35.847 C 320.800 34.838,319.958 34.416,317.928 34.405 C 317.123 34.401,316.824 34.176,316.728 33.500 C 316.637 32.861,316.287 32.564,315.524 32.476 C 314.693 32.380,314.420 32.107,314.324 31.276 C 314.209 30.279,314.046 30.191,312.100 30.079 C 310.204 29.970,310.000 29.868,310.000 29.029 C 310.000 28.322,309.720 28.044,308.830 27.866 C 308.004 27.701,307.622 27.363,307.530 26.716 C 307.416 25.913,307.141 25.785,305.300 25.679 C 303.365 25.568,303.200 25.480,303.200 24.569 C 303.200 23.790,302.945 23.529,302.000 23.340 C 301.340 23.208,300.800 22.848,300.800 22.540 C 300.800 21.872,299.197 21.200,297.602 21.200 C 296.718 21.200,296.426 20.994,296.328 20.300 C 296.222 19.556,295.836 19.335,294.100 19.027 C 292.852 18.805,292.000 18.446,292.000 18.141 C 292.000 17.346,290.632 16.800,288.638 16.800 C 287.086 16.800,286.696 16.627,285.937 15.600 C 285.168 14.560,284.797 14.400,283.153 14.400 C 281.490 14.400,281.240 14.289,281.128 13.500 C 281.015 12.703,280.737 12.586,278.700 12.480 C 276.589 12.370,276.400 12.283,276.400 11.423 C 276.400 10.238,275.759 10.000,272.567 10.000 C 270.129 10.000,270.000 9.952,270.000 9.047 C 270.000 8.166,269.797 8.071,267.332 7.807 C 264.543 7.509,263.200 6.955,263.200 6.104 C 263.200 5.749,262.413 5.600,260.547 5.600 C 258.152 5.600,257.801 5.493,256.955 4.508 C 256.116 3.532,255.696 3.400,252.978 3.263 C 250.624 3.144,249.886 2.962,249.699 2.455 C 249.293 1.351,248.738 1.212,244.700 1.206 C 241.503 1.201,240.800 1.092,240.800 0.600 C 240.800 0.071,236.133 0.000,201.200 0.000 C 166.267 0.000,161.600 0.071,161.600 0.600 M265.800 86.550 C 272.458 86.691,272.663 86.722,275.600 88.004 C 280.853 90.297,285.998 95.089,287.267 98.871 C 287.513 99.602,287.956 100.483,288.253 100.828 C 289.400 102.161,289.600 105.995,289.600 126.661 L 289.600 147.613 290.900 148.167 C 291.615 148.471,293.474 149.278,295.032 149.960 C 296.589 150.642,298.074 151.200,298.332 151.200 C 298.589 151.200,298.800 151.352,298.800 151.537 C 298.800 151.722,299.472 152.217,300.294 152.637 C 303.766 154.410,311.978 161.723,311.994 163.057 C 311.997 163.309,312.278 163.621,312.618 163.752 C 312.958 163.882,313.488 164.591,313.795 165.326 C 314.102 166.062,314.615 166.880,314.934 167.145 C 315.253 167.410,315.743 168.206,316.023 168.913 C 316.303 169.621,316.748 170.470,317.011 170.800 C 317.275 171.130,317.865 172.480,318.322 173.800 C 318.778 175.120,319.439 176.985,319.790 177.945 C 320.140 178.906,320.530 181.426,320.655 183.545 C 320.781 185.665,321.125 188.390,321.420 189.600 C 321.745 190.935,321.866 192.766,321.726 194.257 C 321.439 197.329,321.220 197.242,329.401 197.332 C 338.040 197.427,337.000 192.913,337.000 230.314 C 337.000 264.306,336.803 268.008,334.817 271.264 C 334.369 271.999,334.002 272.970,334.001 273.421 C 334.001 273.873,333.564 275.133,333.031 276.221 C 332.498 277.310,331.770 278.830,331.413 279.600 C 330.809 280.904,329.736 282.797,327.800 285.978 C 327.360 286.701,326.460 287.972,325.800 288.802 C 325.140 289.633,324.150 290.891,323.600 291.598 C 322.202 293.395,321.597 294.000,321.198 294.000 C 321.009 294.000,320.752 294.315,320.627 294.700 C 320.502 295.085,318.944 296.570,317.164 298.000 C 315.384 299.430,313.207 301.185,312.326 301.900 C 311.445 302.615,310.471 303.200,310.162 303.200 C 309.853 303.200,309.600 303.376,309.600 303.591 C 309.600 303.806,308.925 304.327,308.100 304.750 C 307.275 305.173,305.714 305.987,304.632 306.559 C 303.550 307.132,302.254 307.600,301.752 307.600 C 301.250 307.600,300.677 307.890,300.479 308.246 C 298.729 311.372,271.541 313.172,265.288 310.576 C 264.567 310.276,262.857 309.835,261.488 309.595 C 260.120 309.355,258.550 308.840,258.000 308.452 C 257.450 308.063,256.140 307.508,255.090 307.218 C 254.039 306.928,253.084 306.536,252.967 306.346 C 252.850 306.157,251.820 305.548,250.677 304.993 C 248.741 304.053,247.786 303.468,243.753 300.755 C 242.899 300.180,241.449 298.979,240.531 298.086 C 239.614 297.192,238.489 296.261,238.031 296.017 C 237.574 295.772,237.200 295.382,237.200 295.150 C 237.200 294.918,236.210 293.813,235.000 292.695 C 233.790 291.577,232.800 290.423,232.800 290.131 C 232.800 289.839,232.632 289.600,232.426 289.600 C 231.994 289.600,230.027 286.921,228.758 284.601 C 228.277 283.722,227.667 282.822,227.403 282.601 C 227.139 282.381,226.686 281.570,226.396 280.800 C 226.106 280.030,225.641 279.130,225.363 278.800 C 222.838 275.798,219.914 263.443,219.638 254.600 L 219.400 247.000 182.600 246.702 C 136.796 246.332,140.225 246.336,113.200 246.613 C 83.114 246.922,80.304 246.448,73.555 239.925 C 70.834 237.295,70.620 237.001,68.961 233.600 C 68.371 232.390,67.598 230.860,67.244 230.200 C 66.249 228.345,66.257 101.674,67.253 100.542 C 67.612 100.134,68.016 99.435,68.152 98.988 C 69.219 95.468,75.468 89.219,78.988 88.152 C 79.435 88.016,80.088 87.654,80.439 87.346 C 80.790 87.038,82.140 86.651,83.439 86.485 C 85.710 86.196,251.879 86.255,265.800 86.550 M181.600 103.665 C 103.930 103.911,88.166 104.128,86.289 104.974 C 84.581 105.743,84.622 104.424,84.406 165.600 C 84.193 226.264,84.195 226.373,85.583 227.760 L 86.422 228.600 152.911 228.600 L 219.400 228.600 219.499 222.000 C 219.554 218.370,219.452 215.173,219.272 214.895 C 219.023 214.509,216.040 214.367,206.687 214.295 C 191.722 214.179,193.259 215.101,193.160 206.182 C 193.049 196.183,190.503 197.200,215.636 197.200 C 238.231 197.200,235.600 198.249,235.600 189.240 C 235.600 184.787,235.773 182.304,236.166 181.114 C 236.477 180.171,236.940 178.320,237.195 177.000 C 237.449 175.680,237.975 174.150,238.363 173.600 C 238.751 173.050,239.199 172.060,239.359 171.400 C 240.055 168.531,250.289 155.600,251.865 155.600 C 252.082 155.600,252.670 155.164,253.170 154.632 C 253.670 154.100,254.646 153.437,255.340 153.159 C 256.033 152.881,257.109 152.237,257.731 151.727 C 258.353 151.217,259.091 150.800,259.371 150.800 C 259.651 150.800,260.676 150.377,261.647 149.861 C 262.618 149.344,264.400 148.675,265.607 148.373 C 266.813 148.071,268.858 147.450,270.151 146.992 L 272.502 146.160 272.431 126.780 L 272.361 107.400 271.434 105.989 C 269.619 103.228,275.075 103.369,181.600 103.665 M136.481 133.968 C 136.987 134.170,138.383 134.636,139.585 135.004 C 142.711 135.960,145.358 138.178,147.925 141.992 L 149.400 144.184 149.400 158.400 L 149.400 172.616 147.824 175.008 C 146.119 177.596,143.477 180.254,142.208 180.659 C 141.772 180.799,140.902 181.292,140.274 181.756 C 138.668 182.944,110.248 183.084,108.200 181.914 C 107.540 181.537,106.460 180.961,105.800 180.635 C 104.644 180.062,103.148 178.690,101.009 176.239 C 100.452 175.601,99.799 174.341,99.558 173.439 C 99.317 172.538,98.916 171.350,98.667 170.800 C 97.746 168.764,97.896 148.615,98.855 145.600 C 100.043 141.866,100.370 141.297,102.632 139.033 C 105.498 136.165,106.816 135.289,109.011 134.798 C 110.066 134.561,111.215 134.201,111.564 133.996 C 112.392 133.512,135.278 133.486,136.481 133.968 M116.224 152.000 C 115.654 152.659,115.636 163.962,116.202 165.323 C 116.618 166.321,131.774 166.206,132.409 165.200 C 133.075 164.144,132.903 152.014,132.218 151.752 C 130.726 151.179,116.746 151.396,116.224 152.000 M272.000 164.575 C 269.228 165.196,264.590 167.361,262.939 168.805 C 262.245 169.411,261.518 169.973,261.322 170.054 C 260.598 170.352,256.663 175.430,256.102 176.791 C 255.782 177.566,255.241 178.514,254.901 178.897 C 253.176 180.837,251.757 195.893,253.211 196.817 C 253.565 197.042,263.784 197.153,278.800 197.096 L 303.800 197.000 303.787 190.800 C 303.774 184.136,302.658 179.379,300.449 176.572 C 299.982 175.978,299.600 175.311,299.600 175.089 C 299.600 174.653,297.833 172.689,295.619 170.663 C 294.860 169.968,293.848 169.026,293.371 168.570 C 292.894 168.113,291.895 167.498,291.152 167.202 C 290.408 166.907,289.080 166.261,288.200 165.768 C 285.251 164.114,276.826 163.493,272.000 164.575 M130.686 198.113 C 131.848 199.274,131.999 211.819,130.868 213.216 L 130.071 214.200 115.047 214.200 L 100.023 214.200 99.111 213.289 C 97.326 211.505,97.545 200.240,99.403 198.235 L 100.388 197.172 115.180 197.286 C 128.751 197.391,130.031 197.459,130.686 198.113 M177.184 197.592 C 178.974 198.550,179.664 211.244,178.035 213.256 L 177.271 214.200 162.297 214.200 C 150.193 214.200,147.196 214.095,146.661 213.651 C 145.561 212.738,145.682 199.118,146.800 198.000 C 147.699 197.101,175.568 196.726,177.184 197.592 M237.988 214.483 C 236.787 214.927,236.764 215.423,236.904 237.400 C 237.047 260.012,237.290 262.893,239.437 267.439 C 239.967 268.560,240.401 269.730,240.401 270.039 C 240.402 270.347,240.800 271.230,241.285 272.000 C 241.770 272.770,242.487 274.030,242.878 274.800 C 243.268 275.570,244.224 277.010,245.003 278.000 C 245.781 278.990,246.729 280.294,247.109 280.897 C 247.489 281.501,247.944 281.996,248.119 281.997 C 248.295 281.999,249.338 282.900,250.438 284.000 C 251.538 285.100,252.540 286.000,252.665 286.000 C 252.791 286.000,253.751 286.630,254.800 287.400 C 255.849 288.170,256.851 288.800,257.028 288.800 C 257.204 288.800,257.720 289.123,258.174 289.518 C 258.628 289.913,259.720 290.475,260.600 290.767 C 261.480 291.059,262.480 291.543,262.823 291.841 C 263.424 292.365,268.830 293.656,273.800 294.463 C 277.124 295.002,283.977 294.584,287.764 293.612 C 289.504 293.166,291.235 292.800,291.610 292.800 C 291.985 292.800,292.728 292.457,293.260 292.039 C 293.793 291.620,294.979 291.075,295.897 290.828 C 296.815 290.581,297.676 290.201,297.810 289.983 C 297.944 289.766,298.807 289.207,299.727 288.740 C 303.200 286.977,308.904 281.934,311.142 278.647 C 314.483 273.740,316.912 269.141,317.399 266.800 C 317.560 266.030,318.075 264.590,318.545 263.600 C 319.451 261.692,320.133 216.193,319.275 214.889 C 318.904 214.325,239.488 213.928,237.988 214.483 M295.963 232.700 C 298.655 235.218,304.800 242.552,304.800 243.247 C 304.800 244.018,302.187 247.200,301.553 247.200 C 301.359 247.200,300.516 247.875,299.680 248.700 C 298.845 249.525,296.651 251.550,294.805 253.200 C 292.959 254.850,290.880 256.740,290.184 257.400 C 289.488 258.060,287.686 259.680,286.179 261.000 C 282.487 264.234,282.294 264.410,278.415 268.069 C 272.458 273.689,273.658 274.109,261.822 262.266 C 249.573 250.012,250.047 251.535,256.471 245.069 C 263.092 238.407,262.517 238.450,268.197 244.188 C 273.501 249.547,273.491 249.544,276.695 246.500 C 278.026 245.235,280.337 243.120,281.829 241.800 C 284.594 239.355,285.506 238.523,289.270 235.013 C 293.016 231.520,294.247 231.094,295.963 232.700 " stroke="none" fill="#eb233b" fill-rule="evenodd"></path><path id="path2" d="M93.725 87.499 C 97.424 87.566,103.364 87.565,106.925 87.499 C 110.486 87.433,107.460 87.379,100.200 87.379 C 92.940 87.379,90.026 87.433,93.725 87.499 M83.000 88.186 C 81.455 88.893,82.174 88.903,84.000 88.200 C 84.770 87.903,85.130 87.655,84.800 87.648 C 84.470 87.642,83.660 87.883,83.000 88.186 M114.200 88.112 C 114.819 88.490,132.857 88.647,194.000 88.807 C 257.087 88.972,273.306 89.117,274.517 89.530 C 277.875 90.674,282.821 94.653,284.274 97.380 C 284.621 98.030,285.144 98.801,285.437 99.094 C 286.824 100.481,286.951 102.380,287.177 125.000 C 287.431 150.505,287.107 148.500,291.277 150.373 C 297.393 153.119,300.226 154.524,301.308 155.348 C 304.631 157.877,308.249 160.961,308.600 161.561 C 308.820 161.937,309.335 162.620,309.745 163.077 C 310.155 163.535,310.922 164.389,311.448 164.975 C 311.974 165.561,312.788 166.797,313.256 167.721 C 313.724 168.644,314.226 169.490,314.371 169.600 C 314.786 169.915,317.075 175.650,317.405 177.200 C 317.569 177.970,318.039 179.658,318.451 180.952 C 318.863 182.246,319.210 184.406,319.223 185.752 C 319.236 187.098,319.410 188.920,319.611 189.800 C 319.870 190.938,319.925 189.944,319.799 186.357 C 319.440 176.112,315.016 166.721,306.846 158.860 C 305.394 157.463,303.710 156.064,303.103 155.750 C 302.496 155.436,302.000 155.037,302.000 154.864 C 302.000 154.418,292.474 149.737,290.897 149.407 C 288.757 148.960,288.774 149.133,288.684 126.496 L 288.600 105.400 287.331 101.924 C 284.839 95.103,280.675 90.993,273.896 88.666 L 270.793 87.600 192.096 87.612 C 130.011 87.622,113.569 87.727,114.200 88.112 M75.000 92.235 L 73.800 93.266 75.100 92.406 C 75.815 91.933,76.400 91.468,76.400 91.373 C 76.400 91.073,76.231 91.178,75.000 92.235 M72.000 95.200 C 71.530 95.860,71.236 96.400,71.346 96.400 C 71.456 96.400,71.930 95.860,72.400 95.200 C 72.870 94.540,73.164 94.000,73.054 94.000 C 72.944 94.000,72.470 94.540,72.000 95.200 M98.635 101.899 C 98.470 102.063,95.965 102.288,93.068 102.399 C 90.171 102.509,128.120 102.543,177.400 102.472 C 272.496 102.337,268.828 102.266,271.236 104.292 C 273.611 106.290,273.600 106.188,273.600 126.813 C 273.600 149.252,274.017 147.891,266.739 149.211 C 265.370 149.459,263.609 149.998,262.825 150.407 C 262.041 150.817,260.770 151.445,260.000 151.803 C 258.575 152.465,255.413 154.360,253.345 155.793 C 252.139 156.627,248.703 159.705,247.631 160.910 C 247.284 161.300,246.624 162.020,246.165 162.510 C 244.432 164.358,241.434 169.205,240.297 172.000 C 239.894 172.990,239.287 174.401,238.947 175.135 C 237.710 177.809,236.748 183.701,236.555 189.800 C 236.313 197.400,236.292 197.493,234.695 197.954 C 233.975 198.162,225.230 198.328,215.000 198.327 C 195.432 198.326,194.606 198.382,194.243 199.734 C 193.582 202.198,193.990 212.367,194.767 212.782 C 195.228 213.029,200.248 213.234,207.353 213.296 C 218.082 213.390,219.238 213.466,219.886 214.114 C 221.053 215.282,221.209 227.406,220.075 228.807 L 219.271 229.800 153.335 229.800 C 80.004 229.800,85.596 230.028,83.802 226.967 L 82.778 225.220 82.889 171.243 C 82.977 128.393,82.900 117.693,82.517 119.333 C 82.153 120.890,82.030 134.264,82.017 173.548 L 82.000 225.696 83.100 227.408 C 83.782 228.470,84.850 229.439,85.911 229.960 L 87.621 230.800 153.533 230.800 L 219.444 230.800 220.872 229.491 L 222.301 228.183 222.175 221.392 C 222.001 212.007,223.286 212.802,208.278 212.794 C 201.855 212.791,196.343 212.625,196.028 212.426 C 195.600 212.155,195.391 210.676,195.197 206.540 C 194.835 198.834,192.502 199.629,215.506 199.613 L 234.411 199.600 235.809 198.700 C 237.739 197.457,238.020 196.080,237.915 188.350 C 237.827 181.792,238.257 178.449,239.428 176.600 C 239.707 176.160,240.140 175.022,240.390 174.072 C 240.900 172.140,243.322 167.529,244.218 166.785 C 244.538 166.519,244.800 166.129,244.800 165.918 C 244.800 165.439,247.327 162.263,249.195 160.395 C 254.463 155.127,263.033 150.457,269.119 149.538 C 270.734 149.294,272.432 148.778,272.919 148.384 L 273.800 147.671 273.922 127.536 C 274.050 106.341,273.945 104.827,272.294 103.943 C 271.811 103.685,271.190 103.248,270.914 102.971 C 270.638 102.695,269.500 102.273,268.386 102.034 C 266.043 101.532,99.135 101.398,98.635 101.899 M67.696 165.600 L 67.596 227.400 68.675 230.400 C 72.026 239.717,79.109 244.800,88.740 244.800 C 92.285 244.800,91.718 244.525,87.190 244.049 C 77.522 243.032,71.286 237.580,69.065 228.200 C 68.220 224.631,68.211 224.078,68.004 164.200 L 67.795 103.800 67.696 165.600 M83.049 107.415 C 82.912 107.773,82.827 108.996,82.861 110.133 L 82.922 112.200 83.187 109.600 C 83.472 106.818,83.444 106.387,83.049 107.415 M109.539 135.753 C 106.295 136.451,101.804 140.386,100.339 143.813 C 99.641 145.446,99.353 168.285,99.992 171.362 C 100.733 174.929,103.977 178.670,107.966 180.555 L 110.600 181.800 124.000 181.800 L 137.400 181.800 140.061 180.539 C 147.601 176.967,148.897 173.536,148.724 157.600 L 148.600 146.200 147.422 143.600 C 145.589 139.554,142.462 136.823,138.475 135.784 C 135.566 135.027,113.030 135.002,109.539 135.753 M136.691 136.010 C 140.215 136.582,144.624 139.732,146.195 142.800 C 147.971 146.269,148.248 169.567,146.557 173.222 C 145.317 175.902,141.978 179.014,139.467 179.828 C 138.330 180.197,137.229 180.656,137.020 180.849 C 136.811 181.042,131.217 181.200,124.590 181.200 C 111.159 181.200,108.470 180.750,105.303 177.968 C 104.571 177.326,103.820 176.800,103.635 176.800 C 103.449 176.800,103.078 176.272,102.811 175.627 C 102.544 174.982,101.892 173.867,101.363 173.150 L 100.400 171.845 100.400 158.582 L 100.400 145.320 101.593 143.560 C 102.249 142.592,102.789 141.644,102.793 141.454 C 102.803 140.961,106.062 138.038,106.900 137.770 C 107.285 137.647,107.600 137.402,107.600 137.225 C 107.600 136.882,110.215 136.111,112.200 135.867 C 114.983 135.526,134.405 135.639,136.691 136.010 M115.097 149.905 C 113.669 150.790,113.213 155.285,113.555 165.090 C 113.634 167.348,114.714 167.600,124.318 167.600 C 134.892 167.600,134.034 168.302,134.187 159.528 C 134.379 148.566,134.985 149.197,124.284 149.211 C 117.367 149.220,116.041 149.320,115.097 149.905 M133.055 151.000 C 133.866 152.102,133.691 165.130,132.851 166.140 C 132.375 166.713,131.256 166.800,124.395 166.800 C 113.900 166.800,114.641 167.409,114.473 158.645 L 114.346 152.017 115.385 150.979 L 116.423 149.940 124.445 150.070 C 131.921 150.191,132.506 150.254,133.055 151.000 M272.200 162.269 C 271.760 162.384,270.860 162.713,270.200 163.000 C 269.540 163.286,268.399 163.715,267.665 163.952 C 265.102 164.779,261.329 167.516,257.948 171.000 C 256.580 172.410,253.899 176.485,253.342 178.000 C 252.978 178.990,252.317 180.610,251.872 181.600 C 251.030 183.475,250.373 195.045,250.973 197.435 C 251.511 199.579,251.780 199.600,278.665 199.600 L 303.356 199.600 304.478 198.525 L 305.600 197.450 305.600 191.350 C 305.600 184.649,305.057 181.373,303.398 178.071 C 302.849 176.978,302.400 175.977,302.400 175.845 C 302.400 174.585,295.271 167.381,292.400 165.741 C 286.853 162.573,277.293 160.929,272.200 162.269 M284.523 163.410 C 293.201 165.666,300.133 171.819,303.435 180.200 C 304.889 183.890,305.429 196.580,304.176 197.620 C 303.181 198.447,255.856 198.730,253.411 197.924 C 251.429 197.271,251.033 195.707,251.401 190.000 C 252.068 179.687,257.284 170.196,264.200 166.713 C 265.080 166.269,266.092 165.651,266.448 165.338 C 267.019 164.838,272.443 163.198,275.200 162.692 C 277.730 162.228,280.922 162.474,284.523 163.410 M319.660 195.681 C 319.480 198.933,320.989 199.600,328.528 199.600 C 333.186 199.600,334.261 199.712,334.869 200.262 C 335.554 200.883,335.600 200.873,335.600 200.111 C 335.600 198.465,334.681 198.236,328.002 198.218 C 321.062 198.198,320.233 197.937,319.882 195.658 L 319.720 194.600 319.660 195.681 M100.153 198.989 C 99.332 200.160,99.359 212.102,100.183 212.786 C 101.012 213.474,128.996 213.467,129.825 212.779 C 130.424 212.282,130.684 201.701,130.147 199.696 C 129.794 198.378,129.373 198.340,114.393 198.267 C 101.182 198.202,100.686 198.228,100.153 198.989 M148.478 198.331 C 147.081 198.529,146.800 199.876,146.800 206.377 C 146.800 211.132,146.917 212.400,147.395 212.795 C 148.002 213.299,176.441 213.469,177.243 212.973 C 177.900 212.567,177.685 199.368,177.012 198.810 C 176.468 198.359,151.265 197.936,148.478 198.331 M128.571 200.229 C 129.306 200.963,129.492 209.980,128.810 211.774 L 128.420 212.800 114.657 212.800 L 100.893 212.800 100.652 211.900 C 100.336 210.722,100.329 201.051,100.643 200.233 C 101.009 199.277,127.616 199.273,128.571 200.229 M176.735 200.294 C 177.176 201.009,176.844 211.716,176.365 212.196 C 175.460 213.102,149.333 212.933,148.415 212.015 C 147.105 210.705,147.175 200.731,148.500 200.080 C 149.838 199.423,176.320 199.623,176.735 200.294 M235.841 213.554 C 235.211 214.251,235.169 216.119,235.292 238.054 L 235.425 261.800 236.537 265.200 C 237.149 267.070,238.067 269.410,238.577 270.400 C 239.088 271.390,239.638 272.650,239.799 273.200 C 239.961 273.750,240.522 274.773,241.046 275.473 C 241.571 276.174,242.000 276.859,242.000 276.997 C 242.000 277.877,250.560 287.200,251.368 287.200 C 251.577 287.200,252.167 287.593,252.678 288.074 C 253.760 289.090,256.004 290.507,258.000 291.433 C 258.770 291.791,259.648 292.290,259.952 292.542 C 260.732 293.190,266.618 295.181,269.000 295.602 C 272.659 296.250,279.285 296.743,280.129 296.431 C 280.646 296.239,279.083 296.013,276.006 295.833 C 272.520 295.629,270.155 295.257,268.026 294.577 C 266.362 294.045,264.771 293.608,264.492 293.605 C 263.531 293.595,256.101 289.721,253.358 287.800 C 251.660 286.610,244.788 279.692,243.661 278.038 C 239.544 271.996,237.276 266.135,235.984 258.200 C 235.603 255.863,235.481 217.093,235.849 215.255 C 236.263 213.187,235.900 213.205,278.681 213.202 C 321.594 213.200,320.200 213.128,320.621 215.372 C 321.185 218.378,320.551 260.536,319.908 262.800 C 318.422 268.030,316.274 273.096,314.532 275.473 C 314.020 276.174,313.600 276.867,313.600 277.015 C 313.600 277.989,306.496 285.548,304.194 287.024 C 303.537 287.445,302.820 288.003,302.600 288.264 C 300.755 290.452,287.368 295.575,283.400 295.610 C 282.339 295.620,282.002 295.735,282.400 295.953 C 283.345 296.471,289.487 295.766,290.646 295.007 C 291.208 294.638,292.598 294.063,293.734 293.729 C 294.870 293.395,296.070 292.903,296.400 292.636 C 296.730 292.369,297.765 291.819,298.700 291.414 C 299.635 291.010,300.400 290.538,300.400 290.366 C 300.400 290.194,300.805 289.931,301.300 289.780 C 302.664 289.365,305.380 287.292,308.349 284.400 C 310.783 282.029,311.590 281.077,314.281 277.403 C 315.024 276.387,316.801 272.939,319.435 267.400 C 321.355 263.361,321.600 259.880,321.600 236.588 L 321.600 214.539 320.674 213.670 L 319.748 212.800 278.136 212.800 C 237.873 212.800,236.502 212.824,235.841 213.554 M292.543 233.597 C 292.071 233.787,291.441 234.270,291.141 234.671 C 290.842 235.072,289.248 236.553,287.598 237.961 C 285.949 239.370,284.312 240.842,283.960 241.232 C 283.608 241.621,281.898 243.171,280.160 244.674 C 278.422 246.178,276.513 247.901,275.918 248.504 C 273.799 250.651,272.701 250.207,267.644 245.156 L 263.195 240.711 262.098 241.423 C 259.503 243.107,253.200 249.908,253.200 251.023 C 253.200 251.920,254.905 253.820,262.611 261.507 C 273.372 272.243,272.726 271.914,276.377 268.519 C 277.512 267.463,279.456 265.700,280.698 264.600 C 281.939 263.500,283.415 262.150,283.977 261.600 C 284.540 261.050,286.530 259.257,288.400 257.616 C 290.270 255.975,292.886 253.635,294.213 252.416 C 295.540 251.197,297.700 249.246,299.013 248.080 C 300.326 246.914,301.963 245.404,302.651 244.725 L 303.902 243.491 303.036 242.245 C 302.271 241.144,299.035 237.530,295.931 234.309 C 294.829 233.166,294.027 232.998,292.543 233.597 M295.701 234.900 C 296.027 235.395,297.406 236.970,298.766 238.400 C 300.125 239.830,301.580 241.580,301.999 242.290 L 302.761 243.579 299.721 246.290 C 298.050 247.780,295.630 249.990,294.343 251.200 C 293.057 252.410,291.059 254.256,289.902 255.303 C 288.746 256.350,286.687 258.240,285.327 259.503 C 283.967 260.766,282.282 262.250,281.583 262.800 C 280.884 263.350,279.204 264.823,277.851 266.073 C 276.497 267.324,274.721 268.801,273.904 269.356 L 272.417 270.364 263.247 261.255 C 252.206 250.288,252.626 251.409,257.652 246.336 C 262.768 241.174,262.468 241.169,267.937 246.502 C 273.237 251.671,273.647 251.783,276.745 248.900 C 282.603 243.448,285.575 240.731,287.204 239.340 C 288.196 238.493,289.385 237.440,289.845 237.000 C 293.188 233.804,294.636 233.284,295.701 234.900 M132.600 244.400 C 131.940 244.568,135.450 244.706,140.400 244.707 C 146.167 244.708,148.825 244.589,147.800 244.377 C 145.816 243.967,134.234 243.984,132.600 244.400 M218.400 244.677 C 220.221 245.192,220.589 246.660,220.836 254.400 C 220.966 258.470,221.256 262.250,221.481 262.800 C 221.707 263.350,222.020 264.700,222.179 265.800 C 222.787 270.029,225.962 278.026,229.247 283.600 C 233.817 291.358,243.438 300.314,251.200 304.035 C 252.190 304.510,253.270 305.124,253.600 305.399 C 253.930 305.674,254.920 306.121,255.800 306.393 C 256.680 306.666,258.390 307.299,259.600 307.802 C 264.431 309.809,268.882 310.554,277.017 310.718 C 284.502 310.868,285.919 310.738,291.400 309.390 L 293.800 308.799 290.200 309.008 C 288.220 309.123,285.488 309.495,284.128 309.835 C 279.745 310.930,266.871 309.668,261.800 307.645 C 260.700 307.206,258.996 306.639,258.014 306.385 C 257.032 306.131,255.806 305.590,255.289 305.184 C 254.773 304.778,253.686 304.227,252.875 303.960 C 252.064 303.692,250.950 303.166,250.400 302.790 C 249.850 302.414,248.500 301.551,247.400 300.872 C 241.065 296.960,231.831 287.443,229.093 282.004 C 228.705 281.232,228.134 280.150,227.826 279.600 C 226.660 277.520,224.823 272.926,224.407 271.049 C 224.169 269.976,223.796 268.766,223.579 268.360 C 222.712 266.740,221.956 258.962,222.078 252.912 C 222.214 246.104,221.813 245.029,219.000 244.664 C 218.340 244.578,218.070 244.584,218.400 244.677 M335.301 261.400 C 335.305 262.280,335.387 262.593,335.483 262.095 C 335.579 261.598,335.575 260.878,335.475 260.495 C 335.375 260.113,335.296 260.520,335.301 261.400 " stroke="none" fill="#dc9ca4" fill-rule="evenodd"></path><path id="path3" d="M97.200 86.778 L 83.000 87.000 80.400 88.177 C 74.976 90.633,71.180 94.264,68.546 99.518 L 67.000 102.600 66.894 162.918 C 66.832 197.701,66.940 224.032,67.149 225.118 C 67.372 226.278,67.528 203.517,67.555 165.786 C 67.600 104.835,67.604 104.562,68.434 102.186 C 70.867 95.222,75.055 91.022,82.200 88.380 L 84.600 87.493 177.400 87.470 L 270.200 87.448 191.600 87.216 C 148.370 87.089,112.640 86.888,112.200 86.771 C 111.760 86.653,105.010 86.657,97.200 86.778 M275.800 89.251 C 276.460 89.502,277.270 89.898,277.600 90.132 C 278.133 90.509,278.133 90.484,277.600 89.904 C 277.270 89.546,276.460 89.150,275.800 89.024 L 274.600 88.795 275.800 89.251 M285.495 97.800 C 285.951 98.460,286.630 99.957,287.003 101.126 C 287.376 102.295,287.752 103.181,287.838 103.095 C 288.196 102.738,286.288 98.025,285.509 97.341 L 284.664 96.600 285.495 97.800 M86.141 103.700 C 82.826 105.299,82.850 104.787,82.931 174.000 L 82.993 225.800 83.269 173.000 C 83.550 119.368,83.805 107.289,84.688 105.748 C 85.529 104.282,88.002 103.601,92.508 103.594 C 94.759 103.591,96.870 103.413,97.200 103.200 C 98.515 102.350,87.949 102.828,86.141 103.700 M288.282 105.400 C 288.409 106.500,288.577 107.475,288.656 107.567 C 288.955 107.914,288.728 104.964,288.397 104.200 C 288.174 103.685,288.133 104.113,288.282 105.400 M273.385 126.800 C 273.385 137.470,273.437 141.835,273.500 136.500 C 273.563 131.165,273.563 122.435,273.500 117.100 C 273.437 111.765,273.385 116.130,273.385 126.800 M111.800 135.025 C 110.604 135.353,110.343 135.498,111.150 135.387 C 111.892 135.284,117.922 135.187,124.550 135.172 C 131.650 135.155,136.271 135.003,135.800 134.800 C 134.420 134.207,114.089 134.398,111.800 135.025 M146.428 141.400 C 146.428 141.620,146.686 142.250,147.000 142.800 C 147.314 143.350,147.572 143.620,147.572 143.400 C 147.572 143.180,147.314 142.550,147.000 142.000 C 146.686 141.450,146.428 141.180,146.428 141.400 M148.244 145.800 C 148.573 147.271,148.802 147.590,148.794 146.567 C 148.791 146.145,148.605 145.530,148.382 145.200 C 148.085 144.762,148.048 144.924,148.244 145.800 M115.905 150.429 C 115.523 150.652,115.004 151.232,114.753 151.717 C 114.340 152.515,114.407 152.498,115.448 151.548 C 116.594 150.501,116.629 150.496,121.800 150.678 C 124.660 150.779,127.990 150.688,129.200 150.477 C 131.003 150.163,130.064 150.087,124.000 150.059 C 119.663 150.039,116.312 150.192,115.905 150.429 M132.571 151.029 C 132.917 151.374,133.200 151.854,133.200 152.095 C 133.200 152.336,133.305 152.429,133.432 152.301 C 133.756 151.977,132.864 150.400,132.357 150.400 C 132.129 150.400,132.226 150.683,132.571 151.029 M256.700 153.227 C 255.875 153.663,255.200 154.108,255.200 154.218 C 255.200 154.327,255.920 154.049,256.800 153.600 C 257.680 153.151,258.400 152.697,258.400 152.592 C 258.400 152.330,258.397 152.331,256.700 153.227 M133.350 157.800 C 133.351 160.220,133.416 161.158,133.496 159.885 C 133.576 158.612,133.575 156.632,133.494 155.485 C 133.414 154.338,133.349 155.380,133.350 157.800 M114.544 158.400 C 114.544 160.490,114.612 161.345,114.694 160.300 C 114.776 159.255,114.776 157.545,114.694 156.500 C 114.612 155.455,114.544 156.310,114.544 158.400 M249.381 158.900 L 247.800 160.600 249.500 159.019 C 251.081 157.548,251.384 157.200,251.081 157.200 C 251.016 157.200,250.251 157.965,249.381 158.900 M274.800 162.780 C 273.992 162.939,275.515 163.052,278.400 163.048 C 281.150 163.044,282.860 162.918,282.200 162.767 C 280.663 162.418,276.609 162.425,274.800 162.780 M312.014 164.646 C 312.556 165.332,313.228 166.232,313.506 166.646 C 313.804 167.091,313.780 166.908,313.447 166.199 C 313.136 165.539,312.465 164.639,311.955 164.199 C 311.060 163.427,311.062 163.443,312.014 164.646 M266.744 165.230 C 266.225 165.687,266.026 165.946,266.301 165.806 C 268.593 164.641,268.937 164.405,268.344 164.402 C 267.984 164.401,267.264 164.774,266.744 165.230 M289.800 165.600 C 290.900 166.252,291.980 166.788,292.200 166.789 C 292.420 166.791,291.661 166.254,290.514 165.596 C 289.367 164.938,288.287 164.403,288.114 164.407 C 287.941 164.411,288.700 164.948,289.800 165.600 M292.800 166.893 C 292.800 166.988,294.195 168.303,295.900 169.816 C 297.605 171.330,298.640 172.150,298.200 171.639 C 297.282 170.573,292.800 166.634,292.800 166.893 M260.348 169.700 C 258.908 171.075,257.478 172.560,257.171 173.000 C 256.864 173.440,257.401 172.990,258.365 172.000 C 259.329 171.010,260.856 169.533,261.759 168.717 C 262.661 167.901,263.302 167.226,263.183 167.217 C 263.064 167.208,261.788 168.325,260.348 169.700 M148.229 171.029 C 148.081 171.615,148.038 172.172,148.132 172.266 C 148.227 172.360,148.424 171.958,148.571 171.371 C 148.719 170.785,148.762 170.228,148.668 170.134 C 148.573 170.040,148.376 170.442,148.229 171.029 M99.606 171.233 C 99.609 171.765,99.789 172.470,100.006 172.800 C 100.282 173.222,100.323 172.985,100.142 172.000 C 99.825 170.275,99.598 169.949,99.606 171.233 M101.774 175.800 C 103.167 177.852,103.452 178.095,102.677 176.571 C 102.334 175.895,101.749 175.090,101.378 174.782 C 101.007 174.474,101.185 174.932,101.774 175.800 M255.400 175.600 C 255.059 176.260,254.869 176.800,254.979 176.800 C 255.089 176.800,255.459 176.260,255.800 175.600 C 256.141 174.940,256.331 174.400,256.221 174.400 C 256.111 174.400,255.741 174.940,255.400 175.600 M137.834 181.500 C 137.669 181.665,131.744 181.902,124.667 182.026 L 111.800 182.253 124.600 182.226 C 133.925 182.207,137.617 182.068,138.200 181.712 C 138.640 181.444,138.805 181.219,138.567 181.212 C 138.328 181.205,137.999 181.335,137.834 181.500 M319.709 182.800 C 319.709 183.790,319.787 184.195,319.882 183.700 C 319.978 183.205,319.978 182.395,319.882 181.900 C 319.787 181.405,319.709 181.810,319.709 182.800 M304.489 190.620 C 304.428 195.044,304.245 197.220,303.903 197.620 C 303.579 197.998,303.653 197.982,304.113 197.575 C 304.745 197.018,304.808 196.264,304.700 190.575 L 304.578 184.200 304.489 190.620 M320.040 192.238 C 320.000 196.688,320.419 198.034,321.831 197.988 C 322.034 197.981,321.885 197.792,321.500 197.568 C 320.919 197.229,320.793 196.536,320.760 193.480 C 320.700 187.950,320.088 186.894,320.040 192.238 M251.331 192.200 C 251.333 193.740,251.405 194.321,251.492 193.491 C 251.579 192.661,251.577 191.401,251.489 190.691 C 251.400 189.981,251.329 190.660,251.331 192.200 M109.900 198.299 C 112.815 198.367,117.585 198.367,120.500 198.299 C 123.415 198.231,121.030 198.175,115.200 198.175 C 109.370 198.175,106.985 198.231,109.900 198.299 M157.100 198.299 C 160.015 198.367,164.785 198.367,167.700 198.299 C 170.615 198.231,168.230 198.175,162.400 198.175 C 156.570 198.175,154.185 198.231,157.100 198.299 M207.100 198.300 C 211.775 198.364,219.425 198.364,224.100 198.300 C 228.775 198.236,224.950 198.183,215.600 198.183 C 206.250 198.183,202.425 198.236,207.100 198.300 M265.328 198.300 C 271.449 198.362,281.349 198.362,287.328 198.300 C 293.308 198.237,288.300 198.187,276.200 198.187 C 264.100 198.187,259.208 198.238,265.328 198.300 M327.300 198.287 C 327.905 198.378,328.895 198.378,329.500 198.287 C 330.105 198.195,329.610 198.120,328.400 198.120 C 327.190 198.120,326.695 198.195,327.300 198.287 M333.800 198.289 C 335.668 198.748,335.600 197.539,335.597 230.549 C 335.594 262.584,335.491 265.040,333.983 269.115 C 333.552 270.278,333.200 271.548,333.200 271.936 C 333.200 272.606,332.844 273.422,329.857 279.600 C 328.680 282.034,326.803 285.163,325.416 287.000 C 323.287 289.821,321.619 291.863,320.400 293.138 C 316.810 296.894,309.121 302.743,305.800 304.245 C 304.920 304.643,303.917 305.199,303.571 305.482 C 303.225 305.764,302.145 306.249,301.171 306.558 C 300.197 306.867,298.500 307.493,297.400 307.949 C 296.300 308.405,294.083 308.981,292.474 309.230 C 290.865 309.478,289.612 309.746,289.691 309.824 C 290.095 310.228,297.075 309.140,298.529 308.447 C 299.448 308.008,301.137 307.299,302.283 306.870 C 310.687 303.723,319.439 296.268,327.489 285.400 C 330.498 281.338,335.311 269.202,335.991 263.961 C 336.863 257.243,336.494 200.227,335.571 199.054 C 335.091 198.444,334.375 198.020,333.871 198.046 C 333.060 198.090,333.055 198.106,333.800 198.289 M177.693 202.000 C 177.693 202.770,177.775 203.085,177.876 202.700 C 177.976 202.315,177.976 201.685,177.876 201.300 C 177.775 200.915,177.693 201.230,177.693 202.000 M193.693 202.000 C 193.693 202.770,193.775 203.085,193.876 202.700 C 193.976 202.315,193.976 201.685,193.876 201.300 C 193.775 200.915,193.693 201.230,193.693 202.000 M193.737 207.400 C 193.739 209.160,193.809 209.830,193.893 208.889 C 193.978 207.949,193.977 206.509,193.891 205.689 C 193.805 204.870,193.736 205.640,193.737 207.400 M177.728 208.000 C 177.728 209.430,177.801 210.015,177.889 209.300 C 177.978 208.585,177.978 207.415,177.889 206.700 C 177.801 205.985,177.728 206.570,177.728 208.000 M108.500 213.499 C 111.745 213.566,117.055 213.566,120.300 213.499 C 123.545 213.432,120.890 213.377,114.400 213.377 C 107.910 213.377,105.255 213.432,108.500 213.499 M157.100 213.499 C 160.235 213.567,165.365 213.567,168.500 213.499 C 171.635 213.432,169.070 213.376,162.800 213.376 C 156.530 213.376,153.965 213.432,157.100 213.499 M202.076 213.499 C 204.868 213.567,209.548 213.568,212.476 213.499 C 215.404 213.431,213.120 213.375,207.400 213.374 C 201.680 213.374,199.284 213.430,202.076 213.499 M258.530 213.500 C 269.712 213.559,287.892 213.559,298.930 213.500 C 309.969 213.441,300.820 213.392,278.600 213.392 C 256.380 213.392,247.349 213.441,258.530 213.500 M320.586 236.400 C 320.586 248.170,320.637 252.985,320.700 247.100 C 320.762 241.215,320.762 231.585,320.700 225.700 C 320.637 219.815,320.586 224.630,320.586 236.400 M235.786 236.200 C 235.786 247.640,235.837 252.262,235.900 246.472 C 235.962 240.682,235.962 231.322,235.900 225.672 C 235.837 220.022,235.786 224.760,235.786 236.200 M120.700 229.900 C 138.575 229.958,167.825 229.958,185.700 229.900 C 203.575 229.842,188.950 229.795,153.200 229.795 C 117.450 229.795,102.825 229.842,120.700 229.900 M294.378 233.241 C 294.917 233.456,295.555 233.760,295.797 233.916 C 296.040 234.072,295.894 233.885,295.475 233.500 C 295.055 233.115,294.416 232.811,294.056 232.825 C 293.641 232.841,293.760 232.994,294.378 233.241 M70.987 235.975 C 71.321 236.621,71.776 237.261,71.998 237.399 C 72.220 237.536,72.023 237.007,71.561 236.224 C 70.548 234.507,70.135 234.328,70.987 235.975 M296.800 235.050 C 296.800 235.261,297.655 236.236,298.700 237.217 L 300.600 239.000 298.800 237.007 C 297.810 235.912,296.955 234.937,296.900 234.841 C 296.845 234.745,296.800 234.839,296.800 235.050 M74.400 239.702 C 75.307 240.658,78.169 242.800,78.538 242.799 C 78.792 242.798,78.435 242.452,77.744 242.031 C 77.053 241.610,76.368 241.071,76.221 240.835 C 76.075 240.598,75.560 240.199,75.078 239.948 C 74.595 239.697,74.290 239.586,74.400 239.702 M283.504 241.200 C 282.588 242.080,281.950 242.800,282.087 242.800 C 282.223 242.800,283.084 242.080,284.000 241.200 C 284.916 240.320,285.554 239.600,285.417 239.600 C 285.281 239.600,284.420 240.320,283.504 241.200 M263.600 240.918 C 263.600 241.349,272.114 249.600,272.552 249.594 C 272.798 249.591,272.738 249.422,272.418 249.219 C 272.097 249.017,269.982 247.017,267.718 244.775 C 265.453 242.534,263.600 240.798,263.600 240.918 M257.100 245.522 C 251.619 251.010,251.612 251.069,255.885 255.210 C 257.582 256.855,258.617 257.765,258.185 257.233 C 257.753 256.701,256.455 255.341,255.300 254.210 C 252.174 251.151,252.265 250.809,257.604 245.543 C 260.026 243.155,261.871 241.203,261.704 241.208 C 261.537 241.212,259.465 243.153,257.100 245.522 M88.800 245.421 C 91.406 246.242,131.605 246.236,133.400 245.414 C 134.434 244.941,131.302 244.864,110.800 244.859 C 89.683 244.854,87.203 244.917,88.800 245.421 M147.400 245.411 C 148.672 245.831,156.212 245.945,184.220 245.969 C 211.806 245.993,219.557 246.108,219.982 246.500 C 220.279 246.775,220.180 246.511,219.762 245.913 L 219.000 244.825 182.400 244.855 C 151.537 244.879,146.051 244.967,147.400 245.411 M294.400 252.200 C 293.428 253.190,292.723 254.000,292.833 254.000 C 292.943 254.000,293.828 253.190,294.800 252.200 C 295.772 251.210,296.477 250.400,296.367 250.400 C 296.257 250.400,295.372 251.210,294.400 252.200 M287.339 258.646 L 285.400 260.492 287.200 258.990 C 289.615 256.974,289.799 256.800,289.519 256.800 C 289.386 256.800,288.405 257.631,287.339 258.646 M259.205 258.360 C 259.208 258.492,262.035 261.390,265.487 264.800 C 268.940 268.210,271.502 270.651,271.182 270.225 C 270.351 269.120,259.199 258.072,259.205 258.360 M223.663 272.200 C 223.662 272.420,223.903 273.230,224.200 274.000 C 224.497 274.770,224.745 275.130,224.752 274.800 C 224.758 274.470,224.517 273.660,224.214 273.000 C 223.912 272.340,223.664 271.980,223.663 272.200 M226.400 279.000 C 226.868 280.100,227.429 281.180,227.647 281.400 C 228.144 281.903,226.443 277.945,225.928 277.400 C 225.719 277.180,225.932 277.900,226.400 279.000 M307.785 283.700 L 305.800 285.800 307.900 283.815 C 309.851 281.971,310.183 281.600,309.885 281.600 C 309.822 281.600,308.877 282.545,307.785 283.700 M250.401 285.337 C 250.951 285.962,251.760 286.659,252.200 286.886 C 253.042 287.320,253.018 287.293,250.801 285.397 L 249.403 284.200 250.401 285.337 M254.088 288.213 C 254.686 288.843,255.247 289.277,255.335 289.179 C 255.423 289.080,254.933 288.565,254.247 288.034 L 253.000 287.069 254.088 288.213 M233.130 289.500 C 233.561 290.105,234.328 290.960,234.834 291.400 C 235.340 291.840,235.051 291.345,234.192 290.300 C 232.473 288.208,231.903 287.779,233.130 289.500 M299.944 289.624 L 299.000 290.447 300.200 289.745 C 301.779 288.820,301.803 288.800,301.311 288.800 C 301.079 288.800,300.464 289.171,299.944 289.624 M257.544 290.376 C 258.064 290.829,258.679 291.200,258.911 291.200 C 259.403 291.200,259.379 291.180,257.800 290.255 L 256.600 289.553 257.544 290.376 M295.900 291.627 C 295.075 292.063,294.400 292.508,294.400 292.618 C 294.400 292.796,297.559 291.319,297.967 290.951 C 298.427 290.534,297.225 290.928,295.900 291.627 M269.506 294.982 C 271.788 295.745,279.964 296.136,283.200 295.637 C 285.638 295.261,285.538 295.247,281.600 295.410 C 277.761 295.569,271.996 295.218,269.000 294.643 C 268.330 294.514,268.553 294.664,269.506 294.982 M275.500 311.097 C 277.095 311.173,279.705 311.173,281.300 311.097 C 282.895 311.021,281.590 310.959,278.400 310.959 C 275.210 310.959,273.905 311.021,275.500 311.097 " stroke="none" fill="#e78794" fill-rule="evenodd"></path><path id="path4" d="M83.439 86.485 C 82.140 86.651,80.790 87.038,80.439 87.346 C 80.088 87.654,79.435 88.016,78.988 88.152 C 75.468 89.219,69.219 95.468,68.152 98.988 C 68.016 99.435,67.612 100.134,67.253 100.542 C 66.257 101.674,66.249 228.345,67.244 230.200 C 67.598 230.860,68.371 232.390,68.961 233.600 C 70.620 237.001,70.834 237.295,73.555 239.925 C 80.304 246.448,83.114 246.922,113.200 246.613 C 140.225 246.336,136.796 246.332,182.600 246.702 L 219.400 247.000 219.638 254.600 C 219.914 263.443,222.838 275.798,225.363 278.800 C 225.641 279.130,226.106 280.030,226.396 280.800 C 226.686 281.570,227.139 282.381,227.403 282.601 C 227.667 282.822,228.277 283.722,228.758 284.601 C 230.027 286.921,231.994 289.600,232.426 289.600 C 232.632 289.600,232.800 289.839,232.800 290.131 C 232.800 290.423,233.790 291.577,235.000 292.695 C 236.210 293.813,237.200 294.918,237.200 295.150 C 237.200 295.382,237.574 295.772,238.031 296.017 C 238.489 296.261,239.614 297.192,240.531 298.086 C 241.449 298.979,242.899 300.180,243.753 300.755 C 247.786 303.468,248.741 304.053,250.677 304.993 C 251.820 305.548,252.850 306.157,252.967 306.346 C 253.084 306.536,254.039 306.928,255.090 307.218 C 256.140 307.508,257.450 308.063,258.000 308.452 C 258.550 308.840,260.120 309.355,261.488 309.595 C 262.857 309.835,264.567 310.276,265.288 310.576 C 271.541 313.172,298.729 311.372,300.479 308.246 C 300.677 307.890,301.250 307.600,301.752 307.600 C 302.254 307.600,303.550 307.132,304.632 306.559 C 305.714 305.987,307.275 305.173,308.100 304.750 C 308.925 304.327,309.600 303.806,309.600 303.591 C 309.600 303.376,309.853 303.200,310.162 303.200 C 310.471 303.200,311.445 302.615,312.326 301.900 C 313.207 301.185,315.384 299.430,317.164 298.000 C 318.944 296.570,320.502 295.085,320.627 294.700 C 320.752 294.315,321.009 294.000,321.198 294.000 C 321.597 294.000,322.202 293.395,323.600 291.598 C 324.150 290.891,325.140 289.633,325.800 288.802 C 326.460 287.972,327.360 286.701,327.800 285.978 C 329.736 282.797,330.809 280.904,331.413 279.600 C 331.770 278.830,332.498 277.310,333.031 276.221 C 333.564 275.133,334.001 273.873,334.001 273.421 C 334.002 272.970,334.369 271.999,334.817 271.264 C 336.803 268.008,337.000 264.306,337.000 230.314 C 337.000 192.913,338.040 197.427,329.401 197.332 C 321.220 197.242,321.439 197.329,321.726 194.257 C 321.866 192.766,321.745 190.935,321.420 189.600 C 321.125 188.390,320.781 185.665,320.655 183.545 C 320.530 181.426,320.140 178.906,319.790 177.945 C 319.439 176.985,318.778 175.120,318.322 173.800 C 317.865 172.480,317.275 171.130,317.011 170.800 C 316.748 170.470,316.303 169.621,316.023 168.913 C 315.743 168.206,315.253 167.410,314.934 167.145 C 314.615 166.880,314.102 166.062,313.795 165.326 C 313.488 164.591,312.958 163.882,312.618 163.752 C 312.278 163.621,311.997 163.309,311.994 163.057 C 311.978 161.723,303.766 154.410,300.294 152.637 C 299.472 152.217,298.800 151.722,298.800 151.537 C 298.800 151.352,298.589 151.200,298.332 151.200 C 298.074 151.200,296.589 150.642,295.032 149.960 C 293.474 149.278,291.615 148.471,290.900 148.167 L 289.600 147.613 289.600 126.661 C 289.600 105.995,289.400 102.161,288.253 100.828 C 287.956 100.483,287.513 99.602,287.267 98.871 C 285.998 95.089,280.853 90.297,275.600 88.004 C 272.663 86.722,272.458 86.691,265.800 86.550 C 251.879 86.255,85.710 86.196,83.439 86.485 M192.000 87.191 L 271.000 87.400 273.969 88.360 C 280.333 90.417,285.475 95.514,287.636 101.906 L 288.811 105.384 288.793 126.535 C 288.773 149.288,288.697 148.489,290.943 149.164 C 293.787 150.018,298.666 152.398,301.400 154.263 C 301.840 154.563,302.830 155.237,303.600 155.760 C 308.152 158.852,313.929 165.961,316.444 171.565 C 319.387 178.122,320.059 181.557,320.660 193.105 C 320.928 198.271,320.628 198.085,328.599 198.021 L 334.720 197.972 335.560 199.040 C 336.493 200.226,336.871 257.179,335.991 263.961 C 335.311 269.202,330.498 281.338,327.489 285.400 C 319.439 296.268,310.687 303.723,302.283 306.870 C 301.137 307.299,299.448 308.008,298.529 308.447 C 297.610 308.885,295.360 309.402,293.529 309.595 C 291.698 309.789,289.210 310.184,288.000 310.473 C 282.203 311.857,269.925 311.066,261.800 308.785 C 257.639 307.617,248.493 303.299,246.600 301.608 C 246.160 301.215,245.233 300.607,244.539 300.257 C 236.323 296.107,223.876 277.656,222.211 267.158 C 222.058 266.191,221.656 264.320,221.317 263.000 C 220.873 261.264,220.721 258.845,220.770 254.258 C 220.825 249.088,220.722 247.740,220.210 246.958 L 219.582 246.000 184.454 246.000 C 154.489 246.000,149.039 245.912,147.364 245.404 C 144.637 244.577,135.438 244.574,133.462 245.400 C 131.334 246.289,91.568 246.285,88.636 245.396 C 87.556 245.068,85.972 244.800,85.116 244.800 C 78.392 244.800,70.967 238.032,68.145 229.330 L 67.000 225.800 67.000 164.200 L 67.000 102.600 68.546 99.518 C 71.180 94.264,74.976 90.633,80.400 88.177 L 83.000 87.000 97.200 86.778 C 105.010 86.657,111.760 86.653,112.200 86.770 C 112.640 86.887,148.550 87.076,192.000 87.191 M98.600 102.884 C 97.720 103.102,94.840 103.402,92.200 103.551 C 87.215 103.833,85.234 104.439,84.568 105.885 C 83.812 107.526,83.535 123.022,83.368 172.901 L 83.191 225.602 84.170 227.153 C 85.805 229.743,81.752 229.600,153.460 229.600 L 219.200 229.600 220.040 228.760 C 221.083 227.717,221.092 215.515,220.051 214.261 C 219.564 213.674,218.210 213.600,208.011 213.600 C 192.616 213.600,193.485 214.132,193.630 204.800 C 193.744 197.500,192.113 198.000,215.818 198.000 C 238.872 198.000,236.400 198.835,236.400 191.050 C 236.400 184.517,237.495 177.608,239.003 174.632 C 239.551 173.550,240.000 172.366,240.000 172.001 C 240.000 171.636,240.567 170.451,241.260 169.369 C 241.953 168.286,242.983 166.680,243.548 165.800 C 248.389 158.264,259.410 150.231,266.600 148.998 C 269.579 148.488,272.458 147.438,272.841 146.724 C 273.072 146.292,273.178 138.117,273.111 125.968 L 273.000 105.924 271.800 104.928 C 268.758 102.403,276.212 102.606,184.000 102.544 C 129.781 102.507,99.635 102.627,98.600 102.884 M271.434 105.989 L 272.361 107.400 272.431 126.780 L 272.502 146.160 270.151 146.992 C 268.858 147.450,266.813 148.071,265.607 148.373 C 264.400 148.675,262.618 149.344,261.647 149.861 C 260.676 150.377,259.651 150.800,259.371 150.800 C 259.091 150.800,258.353 151.217,257.731 151.727 C 257.109 152.237,256.033 152.881,255.340 153.159 C 254.646 153.437,253.670 154.100,253.170 154.632 C 252.670 155.164,252.082 155.600,251.865 155.600 C 250.289 155.600,240.055 168.531,239.359 171.400 C 239.199 172.060,238.751 173.050,238.363 173.600 C 237.975 174.150,237.449 175.680,237.195 177.000 C 236.940 178.320,236.477 180.171,236.166 181.114 C 235.773 182.304,235.600 184.787,235.600 189.240 C 235.600 198.249,238.231 197.200,215.636 197.200 C 190.503 197.200,193.049 196.183,193.160 206.182 C 193.259 215.101,191.722 214.179,206.687 214.295 C 216.040 214.367,219.023 214.509,219.272 214.895 C 219.452 215.173,219.554 218.370,219.499 222.000 L 219.400 228.600 152.911 228.600 L 86.422 228.600 85.583 227.760 C 84.195 226.373,84.193 226.264,84.406 165.600 C 84.622 104.424,84.581 105.743,86.289 104.974 C 88.166 104.128,103.930 103.911,181.600 103.665 C 275.075 103.369,269.619 103.228,271.434 105.989 M111.564 133.996 C 111.215 134.201,110.066 134.561,109.011 134.798 C 106.816 135.289,105.498 136.165,102.632 139.033 C 100.370 141.297,100.043 141.866,98.855 145.600 C 97.896 148.615,97.746 168.764,98.667 170.800 C 98.916 171.350,99.317 172.538,99.558 173.439 C 99.799 174.341,100.452 175.601,101.009 176.239 C 103.148 178.690,104.644 180.062,105.800 180.635 C 106.460 180.961,107.540 181.537,108.200 181.914 C 110.248 183.084,138.668 182.944,140.274 181.756 C 140.902 181.292,141.772 180.799,142.208 180.659 C 143.477 180.254,146.119 177.596,147.824 175.008 L 149.400 172.616 149.400 158.400 L 149.400 144.184 147.925 141.992 C 145.358 138.178,142.711 135.960,139.585 135.004 C 138.383 134.636,136.987 134.170,136.481 133.968 C 135.278 133.486,112.392 133.512,111.564 133.996 M137.272 135.143 C 142.200 136.374,145.576 139.112,147.625 143.537 L 148.800 146.075 148.800 158.454 L 148.800 170.833 147.625 173.346 C 146.151 176.498,143.796 178.840,140.200 180.729 L 137.400 182.200 124.200 182.200 L 111.000 182.200 108.200 180.853 C 104.822 179.229,103.032 177.720,101.286 175.027 C 99.484 172.246,99.553 172.987,99.683 157.765 L 99.800 144.130 100.989 142.365 C 103.748 138.272,106.656 136.140,110.800 135.173 C 115.347 134.112,133.065 134.092,137.272 135.143 M115.458 151.600 C 114.087 153.122,114.201 164.947,115.598 166.078 C 116.837 167.082,131.984 167.183,132.806 166.193 C 133.356 165.530,133.540 153.300,133.024 151.674 C 132.690 150.623,133.491 150.715,124.079 150.652 L 116.359 150.600 115.458 151.600 M132.218 151.752 C 132.903 152.014,133.075 164.144,132.409 165.200 C 131.774 166.206,116.618 166.321,116.202 165.323 C 115.636 163.962,115.654 152.659,116.224 152.000 C 116.746 151.396,130.726 151.179,132.218 151.752 M275.000 163.205 C 263.328 164.464,254.918 172.724,251.993 185.800 C 251.347 188.686,251.510 196.652,252.229 197.371 C 253.144 198.287,303.225 198.333,303.984 197.420 C 305.062 196.120,304.338 182.993,303.011 179.800 C 298.259 168.367,287.308 161.878,275.000 163.205 M283.723 164.435 C 285.306 164.675,287.320 165.274,288.200 165.768 C 289.080 166.261,290.408 166.907,291.152 167.202 C 291.895 167.498,292.894 168.113,293.371 168.570 C 293.848 169.026,294.860 169.968,295.619 170.663 C 297.833 172.689,299.600 174.653,299.600 175.089 C 299.600 175.311,299.982 175.978,300.449 176.572 C 302.658 179.379,303.774 184.136,303.787 190.800 L 303.800 197.000 278.800 197.096 C 263.784 197.153,253.565 197.042,253.211 196.817 C 251.757 195.893,253.176 180.837,254.901 178.897 C 255.241 178.514,255.782 177.566,256.102 176.791 C 256.663 175.430,260.598 170.352,261.322 170.054 C 261.518 169.973,262.245 169.411,262.939 168.805 C 267.346 164.953,275.630 163.211,283.723 164.435 M99.403 198.235 C 97.545 200.240,97.326 211.505,99.111 213.289 L 100.023 214.200 115.047 214.200 L 130.071 214.200 130.868 213.216 C 131.999 211.819,131.848 199.274,130.686 198.113 C 130.031 197.459,128.751 197.391,115.180 197.286 L 100.388 197.172 99.403 198.235 M146.800 198.000 C 145.682 199.118,145.561 212.738,146.661 213.651 C 147.196 214.095,150.193 214.200,162.297 214.200 L 177.271 214.200 178.035 213.256 C 179.664 211.244,178.974 198.550,177.184 197.592 C 175.568 196.726,147.699 197.101,146.800 198.000 M128.950 198.450 C 130.819 199.301,131.301 211.379,129.528 212.900 C 128.347 213.913,101.236 213.979,100.229 212.971 C 99.309 212.052,99.304 200.201,100.223 198.889 C 100.945 197.858,126.784 197.463,128.950 198.450 M177.086 198.914 C 178.006 199.835,178.175 211.985,177.280 212.880 C 176.680 213.480,147.929 213.661,147.333 213.068 C 146.811 212.549,146.524 201.595,146.991 200.017 C 147.567 198.070,147.686 198.056,162.886 198.132 C 175.246 198.194,176.432 198.260,177.086 198.914 M236.480 214.080 C 236.118 214.442,236.000 219.911,236.000 236.238 L 236.000 257.917 237.137 262.658 C 237.763 265.266,238.640 268.120,239.086 269.000 C 239.532 269.880,240.028 271.050,240.189 271.600 C 240.349 272.150,240.912 273.275,241.440 274.100 C 241.968 274.925,242.884 276.365,243.475 277.300 C 247.472 283.622,258.834 292.197,264.800 293.392 C 265.570 293.547,266.992 293.934,267.961 294.252 C 278.033 297.567,293.093 294.658,303.440 287.400 C 308.970 283.521,318.000 271.242,318.000 267.601 C 318.000 267.249,318.164 266.789,318.364 266.580 C 318.564 266.371,319.052 265.210,319.449 264.000 C 320.355 261.239,320.838 215.210,319.972 214.166 C 319.330 213.392,237.252 213.308,236.480 214.080 M319.275 214.889 C 320.133 216.193,319.451 261.692,318.545 263.600 C 318.075 264.590,317.560 266.030,317.399 266.800 C 316.912 269.141,314.483 273.740,311.142 278.647 C 308.904 281.934,303.200 286.977,299.727 288.740 C 298.807 289.207,297.944 289.766,297.810 289.983 C 297.676 290.201,296.815 290.581,295.897 290.828 C 294.979 291.075,293.793 291.620,293.260 292.039 C 292.728 292.457,291.985 292.800,291.610 292.800 C 291.235 292.800,289.504 293.166,287.764 293.612 C 283.977 294.584,277.124 295.002,273.800 294.463 C 268.830 293.656,263.424 292.365,262.823 291.841 C 262.480 291.543,261.480 291.059,260.600 290.767 C 259.720 290.475,258.628 289.913,258.174 289.518 C 257.720 289.123,257.204 288.800,257.028 288.800 C 256.851 288.800,255.849 288.170,254.800 287.400 C 253.751 286.630,252.791 286.000,252.665 286.000 C 252.540 286.000,251.538 285.100,250.438 284.000 C 249.338 282.900,248.295 281.999,248.119 281.997 C 247.944 281.996,247.489 281.501,247.109 280.897 C 246.729 280.294,245.781 278.990,245.003 278.000 C 244.224 277.010,243.268 275.570,242.878 274.800 C 242.487 274.030,241.770 272.770,241.285 272.000 C 240.800 271.230,240.402 270.347,240.401 270.039 C 240.401 269.730,239.967 268.560,239.437 267.439 C 237.290 262.893,237.047 260.012,236.904 237.400 C 236.764 215.423,236.787 214.927,237.988 214.483 C 239.488 213.928,318.904 214.325,319.275 214.889 M292.600 232.362 C 291.940 232.728,290.441 233.921,289.270 235.013 C 285.506 238.523,284.594 239.355,281.829 241.800 C 280.337 243.120,278.026 245.235,276.695 246.500 C 273.491 249.544,273.501 249.547,268.197 244.188 C 262.517 238.450,263.092 238.407,256.471 245.069 C 250.047 251.535,249.573 250.012,261.822 262.266 C 273.658 274.109,272.458 273.689,278.415 268.069 C 282.294 264.410,282.487 264.234,286.179 261.000 C 287.686 259.680,289.488 258.060,290.184 257.400 C 290.880 256.740,292.959 254.850,294.805 253.200 C 296.651 251.550,298.845 249.525,299.680 248.700 C 300.516 247.875,301.359 247.200,301.553 247.200 C 302.187 247.200,304.800 244.018,304.800 243.247 C 304.800 242.552,298.655 235.218,295.963 232.700 C 294.637 231.460,294.293 231.425,292.600 232.362 M296.133 234.139 C 300.828 239.102,302.371 240.858,303.163 242.141 L 304.063 243.596 301.331 246.162 C 297.995 249.296,293.696 253.213,289.216 257.200 C 287.363 258.850,285.386 260.643,284.823 261.184 C 284.260 261.725,282.450 263.341,280.800 264.776 C 279.150 266.211,277.530 267.664,277.200 268.004 C 272.810 272.534,273.532 272.839,262.389 261.747 C 250.693 250.105,251.134 251.456,257.101 245.533 C 262.953 239.724,262.637 239.747,267.723 244.781 C 274.063 251.056,272.993 251.286,283.441 241.400 C 284.371 240.520,286.168 238.900,287.434 237.800 C 288.700 236.700,290.194 235.364,290.755 234.831 C 293.205 232.502,294.435 232.344,296.133 234.139 " stroke="none" fill="#e26e7e" fill-rule="evenodd"></path></g></svg>
